<?xml version="1.0" encoding="UTF-8" standalone="no"?>
<svg
   xmlns:dc="http://purl.org/dc/elements/1.1/"
   xmlns:cc="http://creativecommons.org/ns#"
   xmlns:rdf="http://www.w3.org/1999/02/22-rdf-syntax-ns#"
   xmlns:svg="http://www.w3.org/2000/svg"
   xmlns="http://www.w3.org/2000/svg"
   xmlns:sodipodi="http://sodipodi.sourceforge.net/DTD/sodipodi-0.dtd"
   xmlns:inkscape="http://www.inkscape.org/namespaces/inkscape"
   version="1.1"
   width="645.86462"
   height="135.64548"
   id="svg1592"
   sodipodi:docname="regex.svg"
   inkscape:version="0.92.4 (unknown)">
  <sodipodi:namedview
     pagecolor="#ffffff"
     bordercolor="#666666"
     borderopacity="1"
     objecttolerance="10"
     gridtolerance="10"
     guidetolerance="10"
     inkscape:pageopacity="0"
     inkscape:pageshadow="2"
     inkscape:window-width="640"
     inkscape:window-height="480"
     id="namedview1594"
     showgrid="false"
     inkscape:snap-global="true"
     inkscape:zoom="2.1996369"
     inkscape:cx="335.89751"
     inkscape:cy="-19.922877"
     inkscape:current-layer="g3053" />
  <defs
     id="defs1270">
    <style
       type="text/css"
       id="style1268">svg {
            background-color: #fff; }
          
          .root text,
          .root tspan {
            font: 12px Arial; }
          
          .root path {
            fill-opacity: 0;
            stroke-width: 2px;
            stroke: #000; }
          
          .root circle {
            fill: #6b6659;
            stroke-width: 2px;
            stroke: #000; }
          
          .anchor text, .any-character text {
            fill: #fff; }
          
          .anchor rect, .any-character rect {
            fill: #6b6659; }
          
          .escape text, .charset-escape text, .literal text {
            fill: #000; }
          
          .escape rect, .charset-escape rect {
            fill: #bada55; }
          
          .literal rect {
            fill: #dae9e5; }
          
          .charset .charset-box {
            fill: #cbcbba; }
          
          .subexp .subexp-label tspan,
          .charset .charset-label tspan,
          .match-fragment .repeat-label tspan {
            font-size: 10px; }
          
          .repeat-label {
            cursor: help; }
          
          .subexp .subexp-label tspan,
          .charset .charset-label tspan {
            dominant-baseline: text-after-edge; }
          
          .subexp .subexp-box {
            stroke: #908c83;
            stroke-dasharray: 6,2;
            stroke-width: 2px;
            fill-opacity: 0; }
          
          .quote {
            fill: #908c83; }
          </style>
  </defs>
  <metadata
     id="metadata1272">
    <rdf:rdf>
      <cc:license
         rdf:about="http://creativecommons.org/licenses/by/3.0/">
        <cc:permits
           rdf:resource="http://creativecommons.org/ns#Reproduction" />
        <cc:permits
           rdf:resource="http://creativecommons.org/ns#Distribution" />
        <cc:requires
           rdf:resource="http://creativecommons.org/ns#Notice" />
        <cc:requires
           rdf:resource="http://creativecommons.org/ns#Attribution" />
        <cc:permits
           rdf:resource="http://creativecommons.org/ns#DerivativeWorks" />
      </cc:license>
    </rdf:rdf>
    <rdf:RDF>
      <cc:Work
         rdf:about="">
        <dc:format>image/svg+xml</dc:format>
        <dc:type
           rdf:resource="http://purl.org/dc/dcmitype/StillImage" />
        <dc:title />
      </cc:Work>
    </rdf:RDF>
  </metadata>
  <desc
     id="desc1274">Created with Snap</desc>
  <g
     id="g3053"
     transform="translate(-10,-94.804848)">
    <path
       d="m 45,116.85595 c 0,-6.66667 3.333333,-10 10,-10 m 529.65267,10 c 0,-6.66667 -3.33333,-10 -10,-10 M 45,177.6668 c 0,6.66667 3.333333,10 10,10 m 529.65267,-10 c 0,6.66667 -3.33334,10 -10,10 M 35,140.41676 c 6.666667,0 10,-3.33334 10,-10 v -13.56081 m 549.65267,23.56081 c -6.66667,0 -10,-3.33334 -10,-10 V 116.85595 M 35,140.41676 c 6.666667,0 10,3.33333 10,10 v 27.25004 m 549.65267,-37.25004 c -6.66667,0 -10,3.33333 -10,10 v 27.25004"
       id="path1282"
       inkscape:connector-curvature="0"
       style="fill-opacity:0;stroke:#000000;stroke-width:1;stroke-miterlimit:4;stroke-dasharray:none"
       sodipodi:nodetypes="cccccccccsccsccsccsc" />
    <path
       sodipodi:nodetypes="ccccccc"
       style="fill-opacity:0;stroke:#000000;stroke-width:1;stroke-miterlimit:4;stroke-dasharray:none"
       inkscape:connector-curvature="0"
       id="path1284"
       d="m 55,106.85595 324.7356,0 194.91707,0 M 55,187.6668 h 25 m 477.87109,0 h 16.78158" />
    <path
       d="m 218.4252,187.6668 c -6.66667,0 -10,3.33333 -10,10 v 9.03433 c 0,6.66666 3.33333,10 10,10 h 66.04077 c 6.66667,0 10,-3.33334 10,-10 v -9.03433 c 0,-6.66667 -3.33333,-10 -10,-10 m 10,15 5,-5 m -5,5 -5,-5"
       id="path1364"
       inkscape:connector-curvature="0"
       style="fill-opacity:0;stroke:#000000;stroke-width:1;stroke-miterlimit:4;stroke-dasharray:none"
       sodipodi:nodetypes="cssssssccccc" />
    <path
       d="M 96.201938,187.6668 H 172 m 3.49711,0 H 248 m 36.46597,0 h 46.30427"
       id="path1308"
       inkscape:connector-curvature="0"
       style="fill-opacity:0;stroke:#000000;stroke-width:1;stroke-miterlimit:4;stroke-dasharray:none"
       sodipodi:nodetypes="cccccc" />
    <path
       d="m 57.953383,187.6668 c 6.666667,0 10,-3.33333 10,-10 v -1.875 c 0,-6.66667 3.333333,-10 10,-10 H 107 c 6.66667,0 10,3.33333 10,10 v 1.875 c 0,6.66667 3.33333,10 10,10"
       id="path1316"
       inkscape:connector-curvature="0"
       style="fill-opacity:0;stroke:#000000;stroke-width:1;stroke-miterlimit:4;stroke-dasharray:none"
       sodipodi:nodetypes="cssssssc" />
    <g
       transform="translate(-0.90924095)"
       id="g2950">
      <rect
         style="fill:#9bcad7;fill-opacity:1;stroke-width:1"
         y="175.79179"
         x="75.284988"
         id="rect1318"
         ry="3"
         rx="3.1506867"
         height="23.75"
         width="35.99408" />
      <text
         style="font-style:normal;font-variant:normal;font-weight:normal;font-stretch:normal;font-size:12px;line-height:normal;font-family:Arial;fill:#000000"
         id="text1322"
         y="192.66679"
         x="79.29277">
        <tspan
           style="font-style:normal;font-variant:normal;font-weight:normal;font-stretch:normal;font-size:12px;line-height:normal;font-family:Arial"
           id="tspan1320">digits</tspan>
      </text>
    </g>
    <g
       id="g2959">
      <rect
         y="175.45465"
         x="218.34357"
         width="66.878975"
         height="23.75"
         rx="2.6534214"
         ry="3"
         id="rect1318-7"
         style="fill:#9bcad7;fill-opacity:1;stroke-width:1" />
      <text
         x="223.34357"
         y="192.32965"
         id="text1322-5"
         style="font-style:normal;font-variant:normal;font-weight:normal;font-stretch:normal;font-size:12px;line-height:normal;font-family:Arial;fill:#000000">
        <tspan
           id="tspan1320-3"
           style="font-style:normal;font-variant:normal;font-weight:normal;font-stretch:normal;font-size:12px;line-height:normal;font-family:Arial">alphabetic</tspan>
      </text>
    </g>
    <path
       sodipodi:nodetypes="cssssssc"
       style="fill-opacity:0;stroke:#000000;stroke-width:1;stroke-miterlimit:4;stroke-dasharray:none"
       inkscape:connector-curvature="0"
       id="path1332"
       d="m 131.5429,187.6668 c 6.66667,0 10,-3.33333 10,-10 v -1.61057 c 0,-6.66666 3.33334,-10 10,-10 h 31 c 6.66667,0 10,3.33334 10,10 v 1.61057 c 0,6.66667 3.33334,10 10,10" />
    <g
       transform="translate(-0.80366305)"
       id="g2954">
      <rect
         style="fill:#d8dee9;fill-opacity:1"
         y="175.79179"
         x="157.90677"
         id="rect1340"
         ry="3"
         rx="3"
         height="23.75"
         width="21" />
      <text
         style="font-style:normal;font-variant:normal;font-weight:normal;font-stretch:normal;font-size:12px;line-height:normal;font-family:Arial;fill:#000000"
         id="text1348"
         y="192.66679"
         x="166.52325">\</text>
    </g>
    <path
       sodipodi:nodetypes="cssssssccssssssccccc"
       style="fill-opacity:0;stroke:#000000;stroke-width:1;stroke-miterlimit:4;stroke-dasharray:none"
       inkscape:connector-curvature="0"
       id="path1444"
       d="m 311.00003,187.6668 c 6.66667,0 10,-3.33333 10,-10 v -19.43531 c 0,-6.66666 3.33333,-10 10,-10 h 223.65264 c 6.66667,0 10,3.33334 10,10 v 19.43531 c 0,6.66667 3.33333,10 10,10 m -248.65264,0 c -6.66667,0 -10,3.33333 -10,10 v 22.28353 c 0,6.66667 3.33333,10 10,10 h 233.65264 c 6.66667,0 10,-3.33333 10,-10 V 197.6668 c 0,-6.66667 -3.33333,-10 -10,-10 m 10,15 5,-5 m -5,5 -5,-5" />
    <path
       style="fill-opacity:0;stroke:#000000;stroke-width:1;stroke-miterlimit:4;stroke-dasharray:none"
       inkscape:connector-curvature="0"
       id="path1452"
       d="m 394.52024,187.6668 h 30" />
    <path
       style="fill-opacity:0;stroke:#000000;stroke-width:1;stroke-miterlimit:4;stroke-dasharray:none"
       inkscape:connector-curvature="0"
       id="path1460"
       d="m 330.77024,187.6668 c 10,0 10,-14.375 20,-14.375 h 23.75 c 10,0 10,14.375 20,14.375 m -63.75,0 c 10,0 10,14.375 20,14.375 m 43.75,-14.375 c -10,0 -10,14.375 -20,14.375"
       sodipodi:nodetypes="cccccccc" />
    <g
       id="g2972">
      <rect
         style="fill:#d8dee9;fill-opacity:1"
         y="161.41679"
         x="351.22855"
         id="rect1464"
         ry="3"
         rx="3"
         height="23.75"
         width="22.833334" />
      <g
         id="g2967">
        <text
           x="359.6843"
           y="178.29179"
           id="text1472"
           style="font-style:normal;font-variant:normal;font-weight:normal;font-stretch:normal;font-size:12px;line-height:normal;font-family:Arial;fill:#000000">^</text>
      </g>
    </g>
    <g
       id="g2976">
      <rect
         style="fill:#d8dee9;fill-opacity:1"
         y="190.16679"
         x="350.77023"
         id="rect1478"
         ry="3"
         rx="3"
         height="23.75"
         width="23.75" />
      <text
         style="font-style:normal;font-variant:normal;font-weight:normal;font-stretch:normal;font-size:12px;line-height:normal;font-family:Arial;fill:#000000"
         id="text1486"
         y="207.04179"
         x="359.14563">_</text>
    </g>
    <path
       sodipodi:nodetypes="cccccccccccccccccccc"
       style="fill-opacity:0;stroke:#000000;stroke-width:1;stroke-miterlimit:4;stroke-dasharray:none"
       inkscape:connector-curvature="0"
       id="path1504"
       d="m 434.52024,178.2918 c 0,-6.66667 3.33333,-10 10,-10 m 105.13243,10 c 0,-6.66667 -3.33334,-10 -10,-10 m -105.13243,28.75 c 0,6.66667 3.33333,10 10,10 m 105.13243,-10 c 0,6.66667 -3.33334,10 -10,10 m -115.13243,-19.375 c 6.66667,0 10,-3.33333 10,-10 v 0.625 m 125.13243,9.375 c -6.66667,0 -10,-3.33333 -10,-10 v 0.625 m -125.13243,9.375 c 6.66667,0 10,3.33333 10,10 v -0.625 m 125.13243,-9.375 c -6.66667,0 -10,3.33333 -10,10 v -0.625" />
    <path
       d="m 444.52024,168.2918 v 0 m 119,0 v 0 m -119,38.75 h 43.5 m 19.04332,0 h 32.58911"
       id="path1506"
       inkscape:connector-curvature="0"
       style="fill-opacity:0;stroke:#000000;stroke-width:1;stroke-miterlimit:4;stroke-dasharray:none"
       sodipodi:nodetypes="cccccccc" />
    <path
       sodipodi:nodetypes="cccc"
       style="fill-opacity:0;stroke:#000000;stroke-width:1;stroke-miterlimit:4;stroke-dasharray:none"
       inkscape:connector-curvature="0"
       id="path1508"
       d="m 465.52024,168.2918 h 20 m 11.54208,0 h 42.59035" />
    <g
       id="g2980">
      <rect
         width="21"
         height="23.75"
         rx="3"
         ry="3"
         id="rect1510"
         x="444.52023"
         y="156.41679"
         style="fill:#d8dee9;fill-opacity:1" />
      <text
         x="452.58893"
         y="172.38255"
         id="text1518"
         style="font-style:normal;font-variant:normal;font-weight:normal;font-stretch:normal;font-size:12px;line-height:normal;font-family:Arial;fill:#000000">{</text>
    </g>
    <g
       id="g3062"
       transform="translate(0.359375)">
      <rect
         style="fill:#9bcad7;fill-opacity:1"
         y="156.41679"
         x="471.427"
         id="rect1526"
         ry="3"
         rx="3"
         height="23.75"
         width="39.3937" />
      <text
         style="font-style:normal;font-variant:normal;font-weight:normal;font-stretch:normal;font-size:12px;line-height:normal;font-family:Arial;fill:#000000"
         id="text1530"
         y="173.29179"
         x="476.427">
        <tspan
           style="font-style:normal;font-variant:normal;font-weight:normal;font-stretch:normal;font-size:12px;line-height:normal;font-family:Arial"
           id="tspan1528">digits</tspan>
      </text>
    </g>
    <g
       inkscape:transform-center-x="2.5717218"
       id="g2984"
       transform="translate(1.4674219e-5)">
      <g
         id="g3057"
         transform="translate(2.0895239)">
        <rect
           style="fill:#d8dee9;fill-opacity:1"
           y="156.41679"
           x="515.35669"
           id="rect1538"
           ry="3"
           rx="3"
           height="23.75"
           width="21" />
        <text
           style="font-style:normal;font-variant:normal;font-weight:normal;font-stretch:normal;font-size:12px;line-height:normal;font-family:Arial;fill:#000000"
           id="text1546"
           y="172.38255"
           x="524.78918">}</text>
      </g>
    </g>
    <rect
       width="32"
       height="23.75"
       rx="3"
       ry="3"
       id="rect1554"
       x="475.29086"
       y="195.16679"
       style="fill:#9bcad7;fill-opacity:1" />
    <text
       x="480.51819"
       y="212.04179"
       id="text1558"
       style="font-style:normal;font-variant:normal;font-weight:normal;font-stretch:normal;font-size:12px;line-height:normal;font-family:Arial;fill:#000000">
      <tspan
         id="tspan1556"
         style="font-style:normal;font-variant:normal;font-weight:normal;font-stretch:normal;font-size:12px;line-height:normal;font-family:Arial">digit</tspan>
    </text>
    <path
       d="M 35,140.41676 H 15 m 578.74012,0 h 58.09363"
       id="path1584"
       inkscape:connector-curvature="0"
       style="fill-opacity:0;stroke:#000000;stroke-width:1;stroke-miterlimit:4;stroke-dasharray:none"
       sodipodi:nodetypes="cccc" />
    <circle
       cx="15"
       cy="140.41676"
       r="5"
       id="circle1586"
       style="fill:#9bcad7;fill-opacity:1;stroke:none;stroke-width:2px" />
    <circle
       cx="650.86462"
       cy="140.41676"
       r="5"
       id="circle1588"
       style="fill:#9bcad7;fill-opacity:1;stroke:none;stroke-width:2px" />
    <g
       id="g2964">
      <rect
         style="fill:#9bcad7;fill-opacity:1;stroke-width:1"
         y="94.804848"
         x="306.25339"
         id="rect2198"
         ry="3"
         rx="3.1506867"
         height="23.75"
         width="36.982716" />
      <text
         style="font-style:normal;font-variant:normal;font-weight:normal;font-stretch:normal;font-size:12px;line-height:normal;font-family:Arial;fill:#000000"
         id="text2202"
         y="110.59609"
         x="310.75549">
        <tspan
           style="font-style:normal;font-variant:normal;font-weight:normal;font-stretch:normal;font-size:12px;line-height:normal;font-family:Arial"
           id="tspan2200">digits</tspan>
      </text>
    </g>
    <g
       transform="translate(92.260522,-28.288939)"
       inkscape:transform-center-y="7.3937001"
       id="g2998"
       inkscape:transform-center-x="69.115023">
      <rect
         style="fill:#d8dee9;fill-opacity:1"
         y="156.41679"
         x="515.35669"
         id="rect2994"
         ry="3"
         rx="3"
         height="23.75"
         width="21" />
      <text
         style="font-style:normal;font-variant:normal;font-weight:normal;font-stretch:normal;font-size:12px;line-height:normal;font-family:Arial;fill:#000000"
         id="text2996"
         y="172.58672"
         x="524.1897">/</text>
    </g>
  </g>
</svg>
